<?xml version="1.0" encoding="UTF-8" standalone="no"?>
<svg>
<g transform="translate(-46.920929,-95.826287)" id="layer1"><g transform="matrix(7.0000593,0,0,-7.0000593,-1054.3053,1570.8708)" id="g12" style="fill:#000000"><g clip-path="url(#clipPath16)" id="g14" style="fill:#000000"><g transform="translate(219.0957,177.6147)" id="g20" style="fill:#000000"><path d="m 0,0 c -1.562,-4.611 -4.52,-8.305 -7.611,-11.912 -2.385,-2.783 -5.19,-5.125 -8.176,-7.247 -0.143,-0.102 -0.297,-0.188 -0.684,-0.427 1.781,3.076 3.217,5.998 3.633,9.404 -4.234,-1.002 -8.227,-0.564 -12.094,1.14 -6.862,3.023 -10.963,9.618 -10.263,17.063 0.573,6.127 3.941,10.543 9.321,13.395 8.667,4.593 19.735,1.655 24.69,-6.516 C 1.703,10.142 1.748,5.159 0,0 m -9.672,-62.013 -14.776,0 c -2.322,0 -4.202,1.914 -4.202,4.274 0,0.065 0.006,0.127 0.009,0.191 -0.005,0 -0.007,1.02 -0.008,2.042 -10e-4,1.128 0.511,4.288 2.061,6.573 1.641,2.419 3.855,3.991 6.256,4.698 -3.165,1.291 -5.396,4.399 -5.396,8.027 0,4.788 3.88,8.668 8.667,8.668 4.788,0 8.668,-3.88 8.668,-8.668 0,-3.72 -2.344,-6.892 -5.637,-8.122 2.333,-0.752 4.537,-2.314 6.273,-4.707 1.621,-2.235 2.286,-5.341 2.286,-6.469 l 0,-2.042 c -0.006,-0.064 0,-0.126 0,-0.191 0,-2.36 -1.881,-4.274 -4.201,-4.274 M 9.795,-8.747 C 9.795,-4.062 9.868,1.806 9.762,6.49 9.715,8.508 9.494,10.566 9.016,12.524 5.594,26.523 -7.957,35.229 -22.186,32.654 -34.782,30.375 -44.158,19.136 -44.158,6.318 l 0,-13.865 0,-1.17 c -0.475,0 -0.795,0.001 -1.116,0 l -11.482,0 c -2.773,0 -5.023,-2.249 -5.023,-5.023 l 0,-56.876 c 0,-2.774 2.25,-5.023 5.023,-5.023 l 79.451,0 c 2.775,0 5.024,2.249 5.024,5.023 l 0,56.876 c 0,2.774 -2.249,5.023 -5.024,5.023 l -12.9,-0.03 z" id="path22" style="fill:#000000;fill-opacity:1;fill-rule:nonzero;stroke:none" /></g></g></g></g>
</svg>
